<svg xmlns="http://www.w3.org/2000/svg" viewBox="0 0 48 48"><defs><style>.cls-1{fill:#42a5f5}.cls-2{fill:#424242}</style></defs><g id="Social_Media" data-name="Social Media"><path class="cls-1" d="M34 0H4a4 4 0 0 0-4 4v28a4 4 0 0 0 4 4h30a4 4 0 0 0 4-4V4a4 4 0 0 0-4-4zM13 3a1 1 0 0 1 0 2 1 1 0 0 1 0-2zM9 3a1 1 0 0 1 0 2 1 1 0 0 1 0-2zM5 3a1 1 0 0 1 0 2 1 1 0 0 1 0-2zm31 29a2 2 0 0 1-2 2H4a2 2 0 0 1-2-2V8h34z"/><path class="cls-2" d="M48 18v20a4 4 0 0 1-4 4c0 5.33.17 5.49-.51 5.87a1 1 0 0 1-1 0L32.72 42H12a4 4 0 0 1-4-4h2a2 2 0 0 0 2 2h21c.39 0-.24-.31 9 5.23V41a1 1 0 0 1 1-1h1a2 2 0 0 0 2-2V18a2 2 0 0 0-2-2h-4v-2h4a4 4 0 0 1 4 4z"/><path class="cls-2" d="M19 32c-.56 0-.42 0-4.41-4H10a3 3 0 0 1-3-3V13a3 3 0 0 1 3-3h18a3 3 0 0 1 3 3v12a3 3 0 0 1-3 3h-4.59c-4.04 4-3.85 4-4.41 4zm-9-20a1 1 0 0 0-1 1v12a1 1 0 0 0 1 1h5c.57 0 .43 0 4 3.59C22.6 26 22.44 26 23 26h5a1 1 0 0 0 1-1V13a1 1 0 0 0-1-1z"/><path class="cls-1" d="M19 15a3.52 3.52 0 0 0-6 2.41A3.38 3.38 0 0 0 14.23 20L19 24l4.77-4A3.46 3.46 0 1 0 19 15z"/></g></svg>